<svg width="25" height="24" viewBox="0 0 25 24" fill="none" xmlns="http://www.w3.org/2000/svg">
<path d="M4.833 19.7148H20.2626C20.7742 19.7148 21.2647 19.5116 21.6264 19.1499C21.9881 18.7882 22.1914 18.2976 22.1914 17.7861V8.1426C22.1914 7.63107 21.9881 7.1405 21.6264 6.77879C21.2647 6.41709 20.7742 6.21389 20.2626 6.21389H12.6153C12.2977 6.21225 11.9853 6.13216 11.706 5.98075C11.4268 5.82934 11.1892 5.61129 11.0145 5.34597L10.2237 4.18875C10.049 3.92343 9.81147 3.70538 9.5322 3.55397C9.25293 3.40256 8.94058 3.32247 8.62291 3.32083H4.833C4.32148 3.32083 3.8309 3.52403 3.4692 3.88574C3.1075 4.24744 2.9043 4.73801 2.9043 5.24954V17.7861C2.9043 18.8469 3.77221 19.7148 4.833 19.7148Z" stroke="#A5A5A9" stroke-width="1.44653" stroke-linecap="round" stroke-linejoin="round"/>
<path d="M12.5474 13.9287C13.08 13.9287 13.5117 13.497 13.5117 12.9644C13.5117 12.4318 13.08 12 12.5474 12C12.0148 12 11.583 12.4318 11.583 12.9644C11.583 13.497 12.0148 13.9287 12.5474 13.9287Z" stroke="#A5A5A9" stroke-width="1.44653" stroke-linecap="round" stroke-linejoin="round"/>
</svg>
