<svg width="24" height="24" viewBox="0 0 24 24" fill="none" xmlns="http://www.w3.org/2000/svg">
<path d="M15.7715 15.8218L17.7002 17.7505L21.5576 13.8931" stroke="#A5A5A9" stroke-width="1.44653" stroke-linecap="round" stroke-linejoin="round"/>
<path d="M20.5927 10.0356V8.10694C20.5924 7.76872 20.5031 7.43653 20.3338 7.14371C20.1646 6.85088 19.9213 6.60772 19.6284 6.43861L12.8779 2.5812C12.5847 2.41192 12.2521 2.3228 11.9135 2.3228C11.575 2.3228 11.2424 2.41192 10.9492 2.5812L4.19873 6.43861C3.90582 6.60772 3.66253 6.85088 3.49327 7.14371C3.324 7.43653 3.23472 7.76872 3.23438 8.10694V15.8218C3.23472 16.16 3.324 16.4922 3.49327 16.785C3.66253 17.0778 3.90582 17.321 4.19873 17.4901L10.9492 21.3475C11.2424 21.5168 11.575 21.6059 11.9135 21.6059C12.2521 21.6059 12.5847 21.5168 12.8779 21.3475L14.8066 20.2481" stroke="#A5A5A9" stroke-width="1.44653" stroke-linecap="round" stroke-linejoin="round"/>
<path d="M7.57422 4.5099L16.2534 9.47632" stroke="#A5A5A9" stroke-width="1.44653" stroke-linecap="round" stroke-linejoin="round"/>
<path d="M3.51465 7.14259L11.9142 11.9644L20.3137 7.14259" stroke="#A5A5A9" stroke-width="1.44653" stroke-linecap="round" stroke-linejoin="round"/>
<path d="M11.9141 21.6079V11.9644" stroke="#A5A5A9" stroke-width="1.44653" stroke-linecap="round" stroke-linejoin="round"/>
</svg>
